<svg width="59" height="52" viewBox="0 0 59 52" fill="none" xmlns="http://www.w3.org/2000/svg">
<path d="M47.9375 32.5H32.8741L37.6309 28.2912L35.0312 26L25.8125 34.125L35.0312 42.25L37.6309 39.9587L32.8741 35.75H47.9375V48.75H51.625V35.75C51.625 34.888 51.2365 34.0614 50.545 33.4519C49.8534 32.8424 48.9155 32.5 47.9375 32.5Z" fill="#726C6C"/>
<path d="M43.7153 15.0963L30.8091 3.72128C30.6368 3.57067 30.4325 3.45152 30.2078 3.37065C29.9832 3.28978 29.7426 3.24879 29.5 3.25003H11.0625C10.0845 3.25003 9.14658 3.59244 8.45504 4.20193C7.7635 4.81142 7.375 5.63807 7.375 6.50003V45.5C7.375 46.362 7.7635 47.1886 8.45504 47.7981C9.14658 48.4076 10.0845 48.75 11.0625 48.75H25.8125V45.5H11.0625V6.50003H25.8125V16.25C25.8125 17.112 26.201 17.9386 26.8925 18.5481C27.5841 19.1576 28.522 19.5 29.5 19.5H40.5625V22.75H44.25V16.25C44.2514 16.0362 44.2049 15.8242 44.1131 15.6262C44.0214 15.4282 43.8862 15.2481 43.7153 15.0963ZM29.5 7.16628L39.8066 16.25H29.5V7.16628Z" fill="#726C6C"/>
</svg>
